Coordinates
version=1
nRows=17
nColumns=40
inDegrees=yes

Units are S.I. units (second, meters, Newtons, ...)
Angles are in degrees.

endheader
time	pelvis_tilt	pelvis_list	pelvis_rotation	pelvis_tx	pelvis_ty	pelvis_tz	hip_flexion_r	hip_adduction_r	hip_rotation_r	knee_angle_r	knee_angle_r_beta	ankle_angle_r	subtalar_angle_r	mtp_angle_r	hip_flexion_l	hip_adduction_l	hip_rotation_l	knee_angle_l	knee_angle_l_beta	ankle_angle_l	subtalar_angle_l	mtp_angle_l	lumbar_extension	lumbar_bending	lumbar_rotation	arm_flex_r	arm_add_r	arm_rot_r	elbow_flex_r	pro_sup_r	wrist_flex_r	wrist_dev_r	arm_flex_l	arm_add_l	arm_rot_l	elbow_flex_l	pro_sup_l	wrist_flex_l	wrist_dev_l
     22.50000000	     -4.84748656	     -3.81204152	     -1.75265840	      0.84908223	      0.93305886	      0.44148049	     32.08639214	     -5.30446225	     -6.48274393	     71.84158071	     71.84158071	      3.57094690	    -18.33636870	      7.56117310	     14.81229358	     -3.71708625	     -8.78418490	     19.18874011	     19.18874011	     11.18614254	    -13.23597694	     -0.77402123	     -8.79182127	      5.30999267	      1.90460367	      8.61850716	    -12.42486399	     -9.31061665	     43.04966180	     45.73667963	      0.00000000	      0.00000000	     11.17573047	    -13.97093060	     -2.39062022	     50.26369799	     46.31363738	      0.00000000	      0.00000000
     22.51214286	     -4.78561542	     -3.78814762	     -1.97189758	      0.84908862	      0.93358718	      0.44092797	     33.11643973	     -5.19605643	     -6.42434426	     70.49131425	     70.49131425	      3.47726003	    -18.08445913	      7.25631217	     13.79343105	     -3.62516542	     -9.13390327	     18.49993881	     18.49993881	     11.44781367	    -12.86663344	     -1.10351915	     -9.00721359	      5.37651459	      2.49803322	      6.74688068	    -12.50506585	     -9.14909788	     40.94399311	     45.79810777	      0.00000000	      0.00000000	     12.46094949	    -13.97744918	     -2.77440090	     52.17918714	     46.38863269	      0.00000000	      0.00000000
     22.52428571	     -4.72143945	     -3.77002578	     -2.17569251	      0.84910031	      0.93405375	      0.44035900	     34.00299001	     -5.08051193	     -6.40001613	     68.90693990	     68.90693990	      3.25347157	    -17.83168718	      6.79765066	     12.75321252	     -3.52075390	     -9.45679574	     17.75335187	     17.75335187	     11.64919231	    -12.48146796	     -1.50979650	     -9.24214481	      5.44769510	      2.93516423	      5.19354408	    -12.47661849	     -8.94972039	     38.34256910	     45.87952352	      0.00000000	      0.00000000	     13.50597257	    -14.03203943	     -3.23822797	     54.48754637	     46.47440284	      0.00000000	      0.00000000
     22.53642857	     -4.65854505	     -3.75846853	     -2.37573415	      0.84916745	      0.93443398	      0.43986640	     34.72869258	     -4.96301113	     -6.43587842	     67.05292035	     67.05292035	      3.05161861	    -17.54841934	      6.43118447	     11.71208781	     -3.41659671	     -9.78222988	     16.98051731	     16.98051731	     11.84645626	    -12.13161762	     -1.88265592	     -9.45248688	      5.54887127	      3.30257832	      3.78070137	    -12.42764617	     -8.73856631	     35.74780831	     45.96212164	      0.00000000	      0.00000000	     14.50161397	    -14.07560200	     -3.75393643	     56.80204520	     46.56419999	      0.00000000	      0.00000000
     22.54857143	     -4.62680823	     -3.76727390	     -2.50496416	      0.84920435	      0.93461180	      0.43938864	     35.32390599	     -4.84631954	     -6.56930199	     64.88847016	     64.88847016	      2.86086748	    -17.27879821	      6.03371398	     10.75337509	     -3.33071037	    -10.03271661	     16.27214920	     16.27214920	     12.02081045	    -11.75882013	     -2.34681162	     -9.63770857	      5.60337740	      3.49337511	      2.62034517	    -12.28130671	     -8.50961757	     32.97666293	     46.05434789	      0.00000000	      0.00000000	     15.30727691	    -14.17856787	     -4.38552127	     59.32362899	     46.66517821	      0.00000000	      0.00000000
     22.56071429	     -4.65623616	     -3.77684011	     -2.61128223	      0.84915973	      0.93454921	      0.43894592	     35.80171700	     -4.78059060	     -6.83996465	     62.30999911	     62.30999911	      2.16687832	    -17.14164658	      4.43586625	      9.93281694	     -3.25887538	    -10.27319015	     15.63267180	     15.63267180	     11.87551276	    -11.56422909	     -3.53118667	     -9.72487662	      5.67998961	      2.16933629	      3.44611631	    -11.72618531	     -8.11148072	     27.65131516	     46.27149419	      0.00000000	      0.00000000	     14.52308856	    -14.90592984	     -6.36020386	     63.56335208	     46.90984746	      0.00000000	      0.00000000
     22.57285714	     -4.69461228	     -3.77065713	     -2.71279097	      0.84918660	      0.93440011	      0.43858950	     36.15647273	     -4.68513911	     -7.10178174	     59.44585170	     59.44585170	      2.12053399	    -16.73059762	      4.54353871	      9.13047301	     -3.15647219	    -10.42268159	     15.04089091	     15.04089091	     12.15512186	    -11.26701181	     -3.64265823	     -9.84081117	      5.76758724	      2.58785474	      1.79310022	    -11.74674291	     -8.02141459	     26.45924928	     46.30553157	      0.00000000	      0.00000000	     15.71764166	    -14.73797981	     -6.82230035	     65.13640778	     46.98292188	      0.00000000	      0.00000000
     22.58500000	     -4.76635221	     -3.70010484	     -2.80011988	      0.84922051	      0.93402016	      0.43836806	     36.38450610	     -4.63644736	     -7.39246641	     56.21109454	     56.21109454	      1.99688821	    -16.28412098	      4.22324396	      8.40716532	     -3.02008185	    -10.67270541	     14.51876329	     14.51876329	     12.40055594	    -10.80424058	     -3.98527184	     -9.94232828	      5.72154033	      2.81074974	      0.37002711	    -11.66835558	     -7.93250901	     25.13597329	     46.35257825	      0.00000000	      0.00000000	     16.56174206	    -14.67440710	     -7.41709045	     67.43370631	     47.07809067	      0.00000000	      0.00000000
     22.59714286	     -4.91343926	     -3.73756937	     -2.82469370	      0.84930453	      0.93349978	      0.43816868	     36.44569793	     -4.50203689	     -7.89987130	     52.51887385	     52.51887385	      2.00902387	    -15.62947480	      4.22589925	      7.82222820	     -2.99766902	    -10.76943451	     14.09890349	     14.09890349	     12.67441154	    -10.51862840	     -4.19319510	     -9.89781611	      5.86083189	      2.78939268	     -1.01318146	    -11.62274845	     -7.89594634	     24.30262896	     46.37788027	      0.00000000	      0.00000000	     17.37636842	    -14.72554257	     -7.78624403	     68.98600459	     47.13946390	      0.00000000	      0.00000000
     22.60928571	     -5.02158531	     -3.65524964	     -2.87881352	      0.84953897	      0.93281215	      0.43817694	     36.20809577	     -4.41250410	     -8.39195887	     48.28750531	     48.28750531	      1.17119557	    -15.20424329	      1.44423816	      7.17819819	     -2.90063051	    -11.17505009	     13.66536944	     13.66536944	     12.85031009	     -9.86222121	     -4.93177058	     -9.99495382	      5.75348387	      2.22998840	     -1.86237683	    -11.47400324	     -7.76567007	     23.16526269	     46.44877646	      0.00000000	      0.00000000	     17.01577727	    -14.96770084	     -9.23072299	     73.11109837	     47.33916798	      0.00000000	      0.00000000
     22.62142857	     -5.18195057	     -3.61231812	     -2.89621527	      0.84985548	      0.93203588	      0.43825864	     35.89686190	     -4.24509012	     -8.97695597	     43.89218637	     43.89218637	      1.31209621	    -14.03226642	      1.54037864	      6.60789837	     -2.80675110	    -11.25714654	     13.26870686	     13.26870686	     13.13058788	     -9.59579093	     -5.07215306	     -9.93743755	      5.74018796	      2.40561955	     -3.31049297	    -11.44294625	     -7.71815910	     22.56900527	     46.46276955	      0.00000000	      0.00000000	     17.93907000	    -14.86044658	     -9.49474191	     74.46761516	     47.39156294	      0.00000000	      0.00000000
     22.63357143	     -5.32765662	     -3.53474103	     -2.88409304	      0.85037895	      0.93113527	      0.43845217	     35.37509807	     -4.05627911	     -9.59444614	     39.22075403	     39.22075403	      1.46769681	    -12.48788287	      1.51718711	      6.00858487	     -2.69406773	    -11.39413893	     12.87594244	     12.87594244	     13.44009785	     -9.16989395	     -5.29556313	     -9.89150755	      5.65442516	      2.52687233	     -4.78533847	    -11.42237226	     -7.72060157	     22.22802976	     46.46891752	      0.00000000	      0.00000000	     18.64698575	    -14.72941868	     -9.74688584	     76.19566334	     47.44878437	      0.00000000	      0.00000000
     22.64571429	     -5.49539672	     -3.44063631	     -2.86971453	      0.85113748	      0.93006595	      0.43877491	     34.69529103	     -3.81840499	    -10.29803436	     34.35872520	     34.35872520	      1.51322648	    -10.64546508	      1.68909657	      5.43419454	     -2.57684342	    -11.55818273	     12.51394123	     12.51394123	     13.74669602	     -8.73715076	     -5.52864885	     -9.78430450	      5.57179155	      2.53340463	     -6.21304936	    -11.36653336	     -7.75434066	     22.07874684	     46.46778019	      0.00000000	      0.00000000	     19.20304699	    -14.67854305	     -9.97631707	     77.88994010	     47.50273921	      0.00000000	      0.00000000
     22.65785714	     -5.54995252	     -3.24449899	     -2.84918990	      0.85223400	      0.92886863	      0.43927500	     33.75615596	     -3.64734095	    -11.09646472	     29.45197934	     29.45197934	      1.26366858	     -8.35875890	      0.90912945	      4.74438429	     -2.41005132	    -12.06533366	     12.23351944	     12.23351944	     14.20538546	     -7.73329144	     -5.91912796	     -9.85812492	      5.30013014	      2.22453388	     -7.89418417	    -11.33634816	     -7.79136724	     23.49845947	     46.40859075	      0.00000000	      0.00000000	     19.01835079	    -14.83266702	    -10.67336365	     81.18819159	     47.63901061	      0.00000000	      0.00000000
     22.67000000	     -5.73778197	     -3.08068629	     -2.80143639	      0.85345888	      0.92740030	      0.43998233	     32.90868946	     -3.29268939	    -11.65867865	     24.70584263	     24.70584263	      1.19313137	     -6.25180537	      1.79125554	      4.18909256	     -2.23509186	    -12.12376756	     11.92346599	     11.92346599	     14.53663372	     -7.45873504	     -6.10374049	     -9.61262706	      5.08936306	      2.18954258	     -9.11179607	    -11.22185418	     -7.76010866	     23.26640651	     46.40581729	      0.00000000	      0.00000000	     19.59232692	    -14.79512766	    -10.75896315	     82.19317436	     47.67098260	      0.00000000	      0.00000000
     22.68214286	     -5.60706022	     -2.90727463	     -2.69999110	      0.85523585	      0.92615507	      0.44068133	     31.70851215	     -3.05891609	    -12.61050026	     20.41189781	     20.41189781	      1.33062387	     -3.33506371	      3.05777673	      3.21290902	     -2.05000995	    -12.32063794	     11.55129950	     11.55129950	     14.95940219	     -6.81270373	     -6.37335915	     -9.73955083	      4.87671195	      2.22785098	    -10.50948216	    -11.22173404	     -7.78268927	     23.43949168	     46.38861384	      0.00000000	      0.00000000	     19.96415554	    -14.67237308	    -10.79848168	     83.78784797	     47.71384161	      0.00000000	      0.00000000
     22.69428571	     -5.61375073	     -2.72150975	     -2.59344817	      0.85716583	      0.92453634	      0.44165873	     30.76699318	     -2.77403134	    -13.37303661	     16.71441295	     16.71441295	      1.36440610	     -0.84074951	      4.64306464	      2.41671658	     -1.88732740	    -12.48223548	     11.25692071	     11.25692071	     15.40756294	     -6.23145881	     -6.62739169	     -9.62867308	      4.60404404	      2.12976582	    -11.72641437	    -11.15389047	     -7.82467932	     23.75430471	     46.36722244	      0.00000000	      0.00000000	     20.18322012	    -14.66081215	    -10.80282045	     85.12029965	     47.74842229	      0.00000000	      0.00000000
